<svg class="h-auto w-14 mt-2 lg:w-[152px] lg:mt-3 lg:scrolled:w-[93px] lg:scrolled:mt-1.5" width="2718" height="1336" viewBox="0 0 2718 1336" fill="currentColor" xmlns="http://www.w3.org/2000/svg">
  <path d="M1252 0.99998C982.7 8.79998 725.5 40 483.7 94.1C404.7 111.8 306.1 138 271 150.6C252.1 157.3 234.5 168.7 218.1 184.5C190.3 211.5 173.1 243.7 167.6 279C166.1 288.6 166 317 166.2 595L166.5 900.5L168.6 909.5C173.6 930.5 183.3 953.2 194.5 970C211.6 995.5 234.4 1016.2 259 1028.5C282.8 1040.4 486.8 1113.6 621.4 1158.4C915.2 1256.4 1142.1 1315.5 1286 1331.4C1344.6 1337.9 1386.3 1337.4 1448.5 1329.4C1609.4 1308.7 1867.8 1237.9 2194 1125.2C2300 1088.5 2440.3 1037.3 2457.5 1029C2507.6 1004.8 2546.3 947.9 2551 891.5C2552.3 875.3 2552.3 305.9 2551 289.6C2546.5 235 2511.2 182.7 2462.3 157.7C2425.2 138.8 2257.3 96.3 2112 69.1C1911.9 31.6 1724.3 11.1 1496.5 1.89998C1463.2 0.59998 1289.3 -0.10002 1252 0.99998ZM1453.5 87C1723.6 94.1 1989.2 126.9 2236 183.6C2314 201.5 2404.9 226.2 2421.5 233.9C2439.3 242.2 2454.9 260.7 2462 281.8L2465 290.8V589.6C2465 925.2 2465.7 893.8 2457 911.5C2449.2 927.3 2436.4 941.7 2422.9 949.8C2415.3 954.4 2280.2 1003.7 2175.5 1040C2119.9 1059.4 1995.2 1100.7 1944 1116.9C1701.2 1193.4 1528.1 1235.6 1407 1247.7C1382.7 1250.1 1335 1250.1 1311 1247.7C1174.5 1233.9 981.4 1185 694 1091.3C563.9 1048.9 315.7 960.9 294.7 949.7C287.6 946 276.4 935.8 269.8 927C263.3 918.5 256.5 904.4 254 894.6C252 886.8 252 882.9 252 590.5C252 298 252 294.2 254 286.5C259.4 265.3 276.3 243.6 294.2 234.7C309.9 226.9 400.6 202.1 481 183.6C725.2 127.5 994.8 94 1258 87.1C1301.1 85.9 1411.8 85.9 1453.5 87Z"></path>
  <path d="M1152.8 196C1140.1 197.2 1128.9 200.4 1116.5 206.5C1103.7 212.8 1094.9 219.2 1085.7 228.9C1071.2 244.4 1062.1 262 1057.3 284C1055.6 292.1 1055.5 307.1 1055.5 637C1055.5 965.1 1055.6 981.9 1057.3 989.9C1062.7 1014.9 1073.8 1035.1 1091.6 1052C1104.7 1064.5 1119.9 1073.1 1136.3 1077.2C1146.6 1079.8 1279.3 1103.9 1280 1103.3C1280.3 1103 1280.6 985.6 1280.8 842.4L1281.1 582H1219.5H1158V638.5V695H1176H1194V838C1194 916.6 1193.7 981 1193.4 981C1189.7 981 1157.6 972.3 1154.4 970.5C1148.8 967.2 1143.6 961.2 1141.4 955.4C1139.6 950.6 1139.5 942 1139.5 632.5V314.5L1142.3 308.8C1147.5 298.1 1157.7 292.2 1169 293.3C1172.1 293.5 1176.2 294.6 1178.1 295.5C1182.8 297.9 1188.7 303.7 1191.3 308.5C1193.5 312.5 1193.5 312.6 1193.8 392.2L1194 472H1237.6H1281.1L1280.7 381.2C1280.4 293.6 1280.3 290.2 1278.3 281.5C1270.6 248 1249.8 221.1 1220 206C1200.7 196.3 1181.8 193.5 1152.8 196Z"></path>
  <path d="M1434 654.4V1104.1L1437.3 1103.5C1439 1103.2 1447.5 1101.9 1456 1100.5C1499.8 1093.3 1553.6 1081.8 1622.3 1064.9L1659 1055.8V1000.3V944.8L1655.8 945.4C1643.4 947.9 1569.1 958.7 1535.8 962.8L1521 964.6V815.3V666H1574.5H1628V610.5V555H1574.5H1521V434.7V314.5L1538.7 315.2C1548.5 315.6 1579 317.1 1606.5 318.5C1634 319.9 1657.1 321 1657.8 321C1658.7 321 1659 309.8 1659 268.6V216.1L1653.8 215.6C1627.3 212.6 1517.3 206.8 1461.3 205.4L1434 204.7V654.4Z"></path>
  <path d="M921 228.2C847 237 775.2 246.7 729.3 254.1L709 257.3V606V954.6L751.2 967.9C774.3 975.2 794.5 981.3 795.9 981.5C797.3 981.7 828 990.9 864 1002C900 1013 930.5 1022.3 931.8 1022.6L934 1023.2V973.9V924.5L864.7 905.5L795.5 886.4L795.2 776.2L795 666H851H907V610.5V555H851H795V449.6V344.2L799.3 343.6C816.2 341.2 925.1 330 931.9 330H934V278.5V227L931.3 227.1C929.7 227.2 925.1 227.7 921 228.2Z"></path>
  <path d="M1780 625.5C1780 844.7 1780.3 1024 1780.6 1024C1780.9 1024 1800.3 1018.4 1823.6 1011.5C1846.9 1004.6 1866.2 999 1866.5 999C1866.8 999 1867.1 909.7 1867.2 800.6L1867.5 602.2L1892.9 789.4C1906.8 892.3 1918.4 977.7 1918.7 979.2C1919.1 981 1919.9 982 1920.9 981.9C1921.8 981.9 1941.2 975.9 1964 968.7L2005.5 955.5L2005.8 606.2C2005.9 414.2 2005.9 257 2005.7 257C2004.7 257 1924.1 244.9 1921.8 244.4L1919 243.8L1918.8 411.6L1918.5 579.3L1892.8 408.5C1878.7 314.6 1866.8 237.5 1866.5 237.2C1866 236.7 1786.2 227.1 1781.8 227C1780.1 227 1780 246.6 1780 625.5Z"></path>
  <path d="M2122 597.6C2122 852.9 2122.3 917.1 2123.3 916.8C2123.9 916.5 2160.7 903.8 2205 888.6C2249.3 873.3 2289.1 859.1 2293.5 856.9C2321.5 843.2 2341.1 813.8 2344.9 779.7C2346.4 766.3 2346.4 411.7 2344.9 398.3C2340.5 358.4 2314.1 324.4 2279 313.1C2271.1 310.6 2230.8 301.4 2171 288.6C2146.5 283.3 2125.5 278.8 2124.3 278.5L2122 278V597.6ZM2225 389.5C2243.3 393.7 2247.5 395.6 2253.3 402C2261.6 411.3 2261 395.4 2261 590.9C2261 781.6 2261.4 770.1 2255 778.8C2253.4 781.1 2250.3 784.1 2248.2 785.5C2245 787.6 2209.3 801 2206.8 801C2206.3 801 2206 707.4 2206 592.9C2206 395.2 2206.1 384.9 2207.8 385.4C2208.7 385.7 2216.5 387.5 2225 389.5Z"></path>
  <path d="M417 318C398 322.9 379.8 327.7 376.5 328.7L370.5 330.6L370.2 584.6L370 838.7L373.2 839.7C375 840.3 389.8 845.6 406 851.5C442.1 864.6 498.6 884.4 550.5 902C572 909.3 590.1 915.5 590.8 915.7C591.7 916.1 592 907.7 592 875.8V835.5L570.3 829.1C546.6 822.2 480.5 800.4 464.5 794.3L454.5 790.5L454.2 549.7C454 358.1 453.7 309 452.7 309.1C452.1 309.1 436 313.1 417 318Z"></path>
  <path d="M2586 362V367H2595.5H2605V392.5V418H2611.5H2618V392.5V367H2627H2636V362V357H2611H2586V362Z"></path>
  <path d="M2648 387.5V418H2654H2660L2660.2 396.3L2660.5 374.6L2668.7 396.1L2676.8 417.5L2681.8 417.8L2686.7 418.1L2695.1 396L2703.5 373.9L2703.8 395.9L2704 418H2710H2716V387.5V356.9L2706.8 357.2L2697.7 357.5L2690.2 377.2C2686 388.1 2682.4 397 2682 397C2681.7 397 2678 388.1 2673.8 377.2L2666.2 357.5L2657.1 357.2L2648 356.9V387.5Z"></path>
</svg>